<svg xmlns="http://www.w3.org/2000/svg" width="1200" height="780" viewBox="0 0 1200 780" fill="none">
  <defs>
    <linearGradient id="bg" x1="60" y1="120" x2="1080" y2="720" gradientUnits="userSpaceOnUse">
      <stop stop-color="#10141A" />
      <stop offset="1" stop-color="#1A1F27" />
    </linearGradient>
    <radialGradient id="sun" cx="0" cy="0" r="1" gradientUnits="userSpaceOnUse" gradientTransform="translate(930 180) rotate(90) scale(140)">
      <stop stop-color="#C8A86D" stop-opacity="0.9" />
      <stop offset="1" stop-color="#C8A86D" stop-opacity="0" />
    </radialGradient>
  </defs>
  <rect width="1200" height="780" rx="28" fill="url(#bg)" />
  <rect x="110" y="180" width="980" height="420" rx="26" fill="#0F1217" stroke="#1F242C" stroke-width="6" />
  <rect x="170" y="230" width="860" height="240" rx="22" fill="#12171E" stroke="#2C323B" stroke-width="4" />
  <rect x="170" y="510" width="860" height="60" rx="18" fill="#0E1116" stroke="#262C35" stroke-width="4" />
  <rect x="170" y="230" width="860" height="240" fill="url(#sun)" opacity="0.65" />
  <rect x="220" y="260" width="280" height="220" rx="20" fill="#0B0D11" stroke="#303844" stroke-width="4" />
  <rect x="540" y="260" width="280" height="160" rx="20" fill="#0B0D11" stroke="#303844" stroke-width="4" />
  <rect x="540" y="440" width="280" height="40" rx="14" fill="#0B0D11" stroke="#303844" stroke-width="4" />
  <rect x="860" y="260" width="140" height="220" rx="20" fill="#0B0D11" stroke="#303844" stroke-width="4" />
  <rect x="230" y="276" width="110" height="28" rx="14" fill="#242C37" />
  <rect x="360" y="276" width="110" height="28" rx="14" fill="#242C37" />
  <rect x="230" y="430" width="140" height="16" rx="8" fill="#2C3442" />
  <rect x="540" y="434" width="180" height="12" rx="6" fill="#2E3746" />
  <rect x="760" y="434" width="40" height="12" rx="6" fill="#C8A86D" opacity="0.8" />
  <rect x="540" y="470" width="220" height="16" rx="8" fill="#2E3746" />
  <rect x="220" y="522" width="420" height="18" rx="9" fill="#C8A86D" opacity="0.78" />
  <rect x="660" y="522" width="180" height="18" rx="9" fill="#242C37" />
  <text x="170" y="690" fill="#E7ECF3" font-family="'Inter', 'Manrope', 'Helvetica', 'Arial', sans-serif" font-size="30" font-weight="700">Вилла на Ладоге</text>
  <text x="170" y="724" fill="#A6B0C0" font-family="'Inter', 'Manrope', 'Helvetica', 'Arial', sans-serif" font-size="18" font-weight="600">Архитектура, которая раскрывает вид на воду и световые сценарии</text>
</svg>
