<svg xmlns="http://www.w3.org/2000/svg" width="1200" height="780" viewBox="0 0 1200 780" fill="none">
  <defs>
    <linearGradient id="bg" x1="120" y1="120" x2="1080" y2="720" gradientUnits="userSpaceOnUse">
      <stop stop-color="#0E1014" />
      <stop offset="1" stop-color="#191D24" />
    </linearGradient>
    <linearGradient id="brass" x1="900" y1="200" x2="1010" y2="520" gradientUnits="userSpaceOnUse">
      <stop stop-color="#C8A86D" />
      <stop offset="1" stop-color="#8D6E3D" />
    </linearGradient>
  </defs>
  <rect width="1200" height="780" rx="28" fill="url(#bg)" />
  <rect x="120" y="150" width="960" height="500" rx="26" fill="#0C0F13" stroke="#1E232C" stroke-width="6" />
  <rect x="180" y="200" width="560" height="360" rx="22" fill="#10141A" stroke="#2A3039" stroke-width="4" />
  <rect x="780" y="200" width="140" height="360" rx="22" fill="#0E1116" stroke="#262C35" stroke-width="4" />
  <rect x="930" y="200" width="110" height="360" rx="22" fill="url(#brass)" />
  <rect x="212" y="230" width="180" height="70" rx="18" fill="#131821" />
  <rect x="420" y="230" width="240" height="70" rx="18" fill="#131821" />
  <rect x="212" y="326" width="448" height="20" rx="10" fill="#2C3441" />
  <rect x="212" y="360" width="240" height="16" rx="8" fill="#2C3441" />
  <rect x="212" y="392" width="280" height="16" rx="8" fill="#2C3441" />
  <rect x="212" y="424" width="340" height="16" rx="8" fill="#2C3441" />
  <rect x="820" y="226" width="60" height="12" rx="6" fill="#C8A86D" opacity="0.78" />
  <rect x="820" y="248" width="60" height="12" rx="6" fill="#C8A86D" opacity="0.78" />
  <rect x="820" y="270" width="60" height="12" rx="6" fill="#C8A86D" opacity="0.78" />
  <rect x="820" y="330" width="60" height="12" rx="6" fill="#C8A86D" opacity="0.78" />
  <rect x="820" y="352" width="60" height="12" rx="6" fill="#C8A86D" opacity="0.78" />
  <rect x="212" y="460" width="320" height="18" rx="9" fill="#C8A86D" opacity="0.85" />
  <rect x="212" y="500" width="260" height="14" rx="7" fill="#2C3441" />
  <rect x="780" y="500" width="80" height="14" rx="7" fill="#2C3441" />
  <rect x="930" y="500" width="80" height="14" rx="7" fill="#F2E2C4" opacity="0.8" />
  <text x="180" y="690" fill="#E7ECF3" font-family="'Inter', 'Manrope', 'Helvetica', 'Arial', sans-serif" font-size="30" font-weight="700">Лобби бизнес-центра</text>
  <text x="180" y="724" fill="#A6B0C0" font-family="'Inter', 'Manrope', 'Helvetica', 'Arial', sans-serif" font-size="18" font-weight="600">Латунь, камень и камерные зоны переговорных</text>
</svg>
